<svg width="493" height="455" xmlns="http://www.w3.org/2000/svg">
 <defs>
  <linearGradient y2="50%" y1="50%" x2="100%" x1="0%" id="a">
   <stop stop-color="#183866" offset="0%"/>
   <stop stop-color="#1A7FC1" offset="100%"/>
  </linearGradient>
  <linearGradient y2="50.057%" y1="50.057%" x2="100%" x1="-.13%" id="b">
   <stop offset="0%"/>
   <stop stop-opacity="0" offset="99%"/>
  </linearGradient>
  <linearGradient y2="-534.629%" y1="-566.037%" x2="310.393%" x1="176.072%" id="c">
   <stop offset="0%"/>
   <stop stop-opacity="0" offset="99%"/>
  </linearGradient>
  <linearGradient y2="-277.344%" y1="-257.998%" x2="52.269%" x1="58.928%" id="d">
   <stop offset="0%"/>
   <stop stop-opacity="0" offset="99%"/>
  </linearGradient>
  <linearGradient y2="-76.114%" y1="-63.273%" x2="8.109%" x1="156.099%" id="e">
   <stop offset="0%"/>
   <stop stop-opacity="0" offset="99%"/>
  </linearGradient>
  <linearGradient y2="-16647.547%" y1="-16584.906%" x2="2162.651%" x1="2361.044%" id="f">
   <stop offset="0%"/>
   <stop stop-opacity="0" offset="99%"/>
  </linearGradient>
  <linearGradient y2="-412.195%" y1="-426.052%" x2="133.142%" x1="241.391%" id="g">
   <stop offset="0%"/>
   <stop stop-opacity="0" offset="99%"/>
  </linearGradient>
  <linearGradient y2="19.27%" y1="22.502%" x2="-35.821%" x1="106.85%" id="h">
   <stop offset="0%"/>
   <stop stop-opacity="0" offset="100%"/>
  </linearGradient>
  <linearGradient y2="-41.335%" y1="-41.335%" x2="114.168%" x1="14.169%" id="i">
   <stop stop-color="#183866" offset="0%"/>
   <stop stop-color="#1A7FC1" offset="100%"/>
  </linearGradient>
  <linearGradient y2="67.977%" y1="39.515%" x2="71.43%" x1="40.386%" id="j">
   <stop offset="0%"/>
   <stop stop-opacity="0" offset="99%"/>
  </linearGradient>
  <linearGradient y2="53.42%" y1="44.923%" x2="93.689%" x1="-12.531%" id="k">
   <stop offset="0%"/>
   <stop stop-opacity="0" offset="99%"/>
  </linearGradient>
  <linearGradient y2="80.595%" y1="42.271%" x2="43.721%" x1="53.702%" id="l">
   <stop offset="0%"/>
   <stop stop-opacity="0" offset="99%"/>
  </linearGradient>
  <linearGradient y2="-335.028%" y1="-333.246%" x2="102.154%" x1="190.926%" id="m">
   <stop offset="0%"/>
   <stop stop-opacity="0" offset="99%"/>
  </linearGradient>
  <linearGradient y2="-126.942%" y1="-126.252%" x2="111.53%" x1="168.578%" id="n">
   <stop offset="0%"/>
   <stop stop-opacity="0" offset="99%"/>
  </linearGradient>
  <linearGradient y2="69.958%" y1="43.618%" x2="28.128%" x1="56.989%" id="o">
   <stop offset="0%"/>
   <stop stop-opacity="0" offset="99%"/>
  </linearGradient>
  <linearGradient y2="-1370.204%" y1="-1473.571%" x2="57.212%" x1="58.095%" id="p">
   <stop offset="0%"/>
   <stop stop-opacity="0" offset="99%"/>
  </linearGradient>
  <linearGradient y2="49.993%" y1="49.993%" x2="99.996%" x1="-.04%" id="q">
   <stop stop-color="#ECC4D7" offset="0%"/>
   <stop stop-color="#EFD4D1" offset="42%"/>
   <stop stop-color="#F2EAC9" offset="100%"/>
  </linearGradient>
  <linearGradient y2="-163.287%" y1="-163.287%" x2="199.03%" x1="99.032%" id="r">
   <stop stop-color="#ECC4D7" offset="0%"/>
   <stop stop-color="#EFD4D1" offset="42%"/>
   <stop stop-color="#F2EAC9" offset="100%"/>
  </linearGradient>
  <linearGradient y2="-84.564%" y1="-84.564%" x2="224.306%" x1="124.306%" id="s">
   <stop stop-color="#ECC4D7" offset="0%"/>
   <stop stop-color="#EFD4D1" offset="42%"/>
   <stop stop-color="#F2EAC9" offset="100%"/>
  </linearGradient>
  <linearGradient y2="153.095%" y1="100.36%" x2="24.06%" x1="128.89%" id="t">
   <stop stop-opacity="0.501" stop-color="#362958" offset="0%"/>
   <stop stop-opacity="0" stop-color="#34313D" offset="100%"/>
  </linearGradient>
  <linearGradient y2="-34268.317%" y1="-34225.187%" x2="3874.36%" x1="3990.942%" id="u">
   <stop offset="0%"/>
   <stop stop-opacity="0" offset="99%"/>
  </linearGradient>
 </defs>
 <g>
  <title>background</title>
  <rect fill="#ffffff" id="canvas_background" height="457" width="495" y="-1" x="-1"/>
 </g>
 <g>
  <title>Layer 1</title>
  <g id="svg_1" fill-rule="nonzero" fill="none">
   <path id="svg_2" d="m584.08,93.214c-20.973,-22.385 -37.208,-49.107 -62.275,-67.375c-39.374,-28.754 -96.041,-31.558 -142.08,-13.494c-46.04,18.063 -81.905,54.474 -105.544,95.703c-12.435,21.692 -22.202,45.354 -40.423,63.08c-15.403,14.976 -35.648,24.531 -54.843,34.938c-30.948,16.733 -60.752,36.952 -80.78,64.695c-20.026,27.743 -28.98,64.18 -16.178,95.446c8.633,21.097 26.022,37.883 43.836,53.081c20.964,17.869 43.496,34.601 69.5,45.248c32.555,13.246 68.694,16.094 104.134,17.442c62.828,2.38 125.757,0.601 188.319,-5.323c51.23,-4.844 104.011,-13.113 146.874,-39.88c60.043,-37.484 91,-106.163 97.97,-173.51c2.836,-26.936 2.118,-54.928 -8.964,-79.92c-26.504,-59.78 -98.017,-45.798 -139.547,-90.131l0.001,0z" fill="#EFF1F7"/>
   <path id="svg_3" d="m179.317,203.334s-16.6,-2.947 -21.25,8.669c-4.65,11.616 0,51.733 0,51.733l61.933,44.264l-40.683,-104.666z" fill="#3F3D56"/>
   <path id="svg_4" d="m257.202,380.727l-24.555,7.008c-3.568,1.01 -7.31,-0.952 -8.372,-4.386c-1.047,-3.438 0.987,-7.046 4.55,-8.069l24.522,-7.014c3.565,-1.01 7.307,0.947 8.372,4.379c1.058,3.433 -0.96,7.045 -4.517,8.082z" fill="#2BD0D0"/>
   <circle id="svg_5" fill="#25233A" r="11" cy="396" cx="256"/>
   <circle id="svg_6" fill="#3F3D56" r="5.5" cy="398.5" cx="254.5"/>
   <circle id="svg_7" fill="#25233A" r="11" cy="385" cx="211"/>
   <path id="svg_8" d="m215,385.5a5.5,5.5 0 1 1 -11,0a5.5,5.5 0 0 1 11,0z" fill="url(#a)"/>
   <circle id="svg_9" fill="#25233A" r="11" cy="400" cx="208"/>
   <path id="svg_10" d="m217,400.5a5.5,5.5 0 1 1 -11,0a5.5,5.5 0 0 1 11,0z" fill="#3F3D56"/>
   <path id="svg_11" d="m258.085,391.874l-50.787,-10.046c-3.574,-0.717 -5.884,-4.13 -5.168,-7.636c0.732,-3.5 4.21,-5.764 7.785,-5.066l50.787,10.027c3.574,0.717 5.884,4.13 5.168,7.637c-0.723,3.507 -4.204,5.781 -7.785,5.084z" fill="#2BD0D0"/>
   <path id="svg_12" d="m227,311l14,0l0,59c0,3.866 -3.133,7 -6.997,7a6.999,6.999 0 0 1 -6.996,-7l0,-59l-0.007,0z" fill="#2BD0D0"/>
   <path id="svg_13" d="m232.187,387.708l-24.537,7.025c-3.568,1.014 -7.314,-0.949 -8.375,-4.388c-1.047,-3.44 0.987,-7.05 4.548,-8.074l24.537,-7.005c3.564,-1.01 7.304,0.948 8.368,4.381c1.039,3.435 -0.99,7.034 -4.541,8.06l0,0.001z" fill="#2BD0D0"/>
   <path id="svg_14" d="m237,387.26l-3.125,0.551a12.89,12.89 0 0 1 -2.875,0.172l1.305,-0.228a10.302,10.302 0 0 0 2.507,-0.755l2.188,0.26z" fill="url(#b)"/>
   <path id="svg_15" d="m262,373.738a6.914,6.914 0 0 1 -1.46,4.262l-20.54,-4.35a7.113,7.113 0 0 0 1.098,-2.462l12.654,-3.923a6.201,6.201 0 0 1 4.913,0.579c1.5,0.867 2.609,2.324 3.083,4.048c0.164,0.6 0.249,1.222 0.252,1.846z" fill="url(#c)"/>
   <path id="svg_16" opacity="0.31" d="m226.22,372.103a5.776,5.776 0 0 1 -0.22,-1.58l0,-58.523l5.943,0l0,63.07c-0.059,0.31 -0.04,0.627 0.057,0.93a9.278,9.278 0 0 0 -2.845,-0.511c-0.69,-0.04 -1.385,-0.04 -2.076,0l0.425,-0.1c0.262,-0.04 -0.94,-2.091 -1.283,-3.286l-0.001,0z" fill="url(#d)"/>
   <path id="svg_17" opacity="0.31" d="m263.289,390.8c-0.97,0.523 -2.061,0.797 -3.17,0.796a7.063,7.063 0 0 1 -1.33,-0.13l-22.407,-4.406l-1.867,-0.363a6.54,6.54 0 0 1 -2.133,1.055l-1.11,0.317l-23.025,6.666c-3.514,1.007 -7.202,-0.943 -8.247,-4.362c1.997,1.805 5.029,1.973 7.223,0.401c2.811,-1.896 14.002,-4.743 20.341,-6.257c2.996,-0.698 5.288,-3.05 5.848,-6c0.016,-0.173 0.042,-0.346 0.08,-0.517c1.056,1.113 2.997,2.362 6.505,3.423c8.64,2.589 22.667,4.304 22.667,4.304s2.532,2.42 0.625,5.073z" fill="url(#e)"/>
   <path id="svg_18" d="m265,389a7.624,7.624 0 0 1 -2,2a119.75,119.75 0 0 0 2,-2z" fill="url(#f)"/>
   <path id="svg_19" d="m227.3,371.559a6.82,6.82 0 0 0 1.7,3.13c-0.21,0.039 -0.425,0.092 -0.641,0.151l-21.271,6.16c-3.271,-0.813 -5.426,-3.865 -5.044,-7.146c0.381,-3.28 3.181,-5.781 6.556,-5.854a7.14,7.14 0 0 1 1.35,0.132l17.35,3.427z" fill="url(#g)"/>
   <path id="svg_20" d="m260,90.407s-0.276,-20.805 -17.075,-19.01c-16.8,1.793 -15.511,-5.095 -22.687,-4.339c-7.175,0.757 -15.51,7.786 -13.117,16.468c2.395,8.682 -6.332,10.623 -12.064,17.21c-5.733,6.587 1.349,11.976 11.006,18.416c9.657,6.44 -0.6,4.773 5.125,14.955c5.726,10.181 25.107,-2.825 25.107,-2.825l23.705,-40.875z" fill="#503164"/>
   <path id="svg_21" d="m123.664,435.601l11.73,0.399l0,-93.745s0.59,-24.241 23.452,-26.673c22.861,-2.431 230.196,-32.466 230.196,-32.466s8.218,-0.87 12.951,14.901c4.733,15.771 9.34,77.787 9.34,77.787l63.64,8.577s1.68,-109.55 -21.302,-115.595c-22.981,-6.045 -323.522,24.76 -323.522,24.76s-22.29,116.352 -6.485,142.055z" fill="#2BD0D0"/>
   <path id="svg_22" opacity="0.197" d="m123.664,435.601l11.73,0.399l0,-93.745s0.59,-24.241 23.452,-26.673c22.861,-2.431 230.196,-32.466 230.196,-32.466s8.218,-0.87 12.951,14.901c4.733,15.771 9.34,77.787 9.34,77.787l63.64,8.577s1.68,-109.55 -21.302,-115.595c-22.981,-6.045 -323.522,24.76 -323.522,24.76s-22.29,116.352 -6.485,142.055z" fill="url(#h)"/>
   <path id="svg_23" d="m63,304.784s5.744,-31.756 46.144,-40.079l285.183,-32.643s27.996,-1.16 40.804,6.587c12.808,7.746 31.088,14.168 38.583,49.223c7.495,35.056 9.286,94.942 9.286,94.942l-7.09,1.1s-10.348,-108.44 -21.312,-115.306c-10.963,-6.865 -307.402,35.255 -307.402,35.255s-20.561,4.088 -22.352,34.532c-1.79,30.443 0,96.605 0,96.605l-61.844,-24.943l0,-105.273z" fill="#2BD0D0"/>
   <path id="svg_24" opacity="0.19" d="m356.425,244.844c-14.762,-1.9 -29.644,-3.276 -44.519,-2.72c-11.18,0.433 -22.286,1.966 -33.372,3.493l-97.775,13.503c-1.66,0.23 -3.55,0.603 -4.38,2.044c-1.592,2.752 2.15,5.464 5.182,6.512c32.51,11.256 67.243,22.656 100.708,14.63c15.3,-3.669 29.511,-11.288 45.03,-13.935c15.518,-2.647 31.448,-0.21 46.933,-2.706c14.557,-2.345 28.417,-9.009 43.172,-9.074c4.525,0 9.183,0.577 13.475,-0.839c4.293,-1.415 8.088,-5.739 6.9,-10.05c-13.853,-0.478 -29.404,-3.007 -42.992,-0.262c-13.449,2.712 -24.894,-0.596 -38.362,-0.596z" fill="url(#i)"/>
   <path id="svg_25" d="m268,260.38l0.57,2.114s16.881,10.173 16.775,10.501c-0.106,0.328 70.024,-16.24 70.024,-16.24l1.631,-4.755l-89,8.38z" fill="#2BD0D0"/>
   <path id="svg_26" d="m268,260.38l0.57,2.114s16.881,10.173 16.775,10.501c-0.106,0.328 70.024,-16.24 70.024,-16.24l1.631,-4.755l-89,8.38z" fill="url(#j)"/>
   <path id="svg_27" d="m269,260.364l62.107,-13.364l25.893,5.054l-70.558,16.946l-17.442,-8.636z" fill="#2BD0D0"/>
   <path id="svg_28" d="m269,260.364l62.107,-13.364l25.893,5.054l-70.558,16.946l-17.442,-8.636z" fill="url(#k)"/>
   <path id="svg_29" d="m248.832,271.484l14.457,0.512s3.672,0.228 4.62,-2.717c0.95,-2.945 -5.89,-9.16 -6.622,-9.277c-0.733,-0.118 -19.76,5.22 -17.017,10.556l4.562,0.926z" fill="#2BD0D0"/>
   <path id="svg_30" d="m248.832,271.484l14.457,0.512s3.672,0.228 4.62,-2.717c0.95,-2.945 -5.89,-9.16 -6.622,-9.277c-0.733,-0.118 -19.76,5.22 -17.017,10.556l4.562,0.926z" fill="url(#l)"/>
   <path id="svg_31" d="m80,417.056l-7.058,21.677c-20.473,7.351 -37.88,0 -37.88,0l-5.062,-22.733s25.535,8.56 50,1.056z" fill="#2BD0D0"/>
   <path id="svg_32" d="m80,417.056l-7.058,21.677c-20.473,7.351 -37.88,0 -37.88,0l-5.062,-22.733s25.535,8.56 50,1.056z" fill="url(#m)"/>
   <path id="svg_33" d="m88,397l-2.284,16.943l-5.786,3.008c-24.648,7.42 -50.415,-1.038 -50.415,-1.038l-4.443,-3.283l-2.072,-15.63l65,0z" fill="#2BD0D0"/>
   <path id="svg_34" d="m88,397l-2.284,16.943l-5.786,3.008c-24.648,7.42 -50.415,-1.038 -50.415,-1.038l-4.443,-3.283l-2.072,-15.63l65,0z" fill="url(#n)"/>
   <ellipse id="svg_35" ry="6" rx="32.5" fill="#2BD0D0" cy="396" cx="55.5"/>
   <ellipse id="svg_36" ry="6" rx="32.5" fill="url(#o)" cy="396" cx="55.5"/>
   <path id="svg_37" d="m40.641,266.03c-3.182,-1.515 -6.603,-2.658 -9.356,-4.87c-5.547,-4.5 -6.953,-12.248 -8.69,-19.198c-1.736,-6.951 -5.097,-14.593 -11.944,-16.587c-2.562,-0.737 -5.567,-0.445 -7.515,1.39c-2.053,1.933 -2.47,5.11 -1.908,7.914c0.561,2.804 1.928,5.316 2.985,7.974a36.878,36.878 0 0 1 2.172,19.477c-0.865,5.389 -2.932,10.851 -1.605,16.134c2.252,8.964 13.47,14.22 13.78,23.457c0.212,6.233 -4.885,12.001 -3.73,18.135c0.852,4.538 5.005,8.08 5.23,12.692c0.25,5.23 -4.662,9.655 -4.424,14.885c0.237,5.23 5.427,8.725 8.815,12.839a21.453,21.453 0 0 1 4.827,12.193c0.178,2.791 -0.179,5.682 0.726,8.327c0.66,1.933 1.98,3.575 3.004,5.316c1.13,1.88 1.981,3.914 3.341,5.655a13.696,13.696 0 0 0 14.725,4.651c1.05,-6.95 0.132,-14.04 0.423,-21.065c0.574,-13.609 5.691,-27.324 2.416,-40.535c-1.201,-4.844 -3.512,-9.443 -3.922,-14.413c-0.363,-4.44 0.812,-8.838 1.631,-13.217c1.69,-9.044 1.664,-18.394 0.97,-27.538c-0.547,-7.256 -5.618,-10.599 -11.95,-13.616l-0.001,0z" fill="#2BD0D0"/>
   <path id="svg_38" d="m60.752,301.767c-0.053,6.062 1.33,12.33 -0.612,18.085c-1.47,4.362 -4.702,7.934 -6.371,12.223c-3.85,9.899 1.33,21 0.273,31.57c-0.44,4.354 -1.936,8.537 -2.88,12.813a51.236,51.236 0 0 0 -0.851,16.485a4.17,4.17 0 0 0 3.325,4.342a51.942,51.942 0 0 0 10.075,2.715a26.638,26.638 0 0 1 3.445,-18.59c5.274,-8.63 15.522,-14.446 17.43,-24.359c1.29,-6.712 -1.715,-13.524 -1.502,-20.355a21.886,21.886 0 0 1 4.482,-12.548c2.48,-3.227 5.839,-5.723 8.147,-9.07c5.546,-8.066 3.817,-18.848 2.168,-28.494c-1.65,-9.647 -2.607,-20.748 3.91,-28.057c2.062,-2.31 4.748,-4.044 6.617,-6.513c4.163,-5.504 3.112,-13.983 -1.73,-18.902c-4.84,-4.92 -12.635,-6.28 -19.218,-4.116a13.86,13.86 0 0 0 -7.01,4.76c-3.325,4.714 -1.995,11.154 -0.585,16.757c1.23,4.867 2.221,10.483 0.539,15.39c-1.257,3.651 -4.443,5.63 -7.15,8.172a38.903,38.903 0 0 0 -12.502,27.692z" fill="#2BD0D0"/>
   <path id="svg_39" d="m54.062,355.522c-0.938,6.593 -2.292,13.239 -2.57,19.851l0,0.665a1.757,1.757 0 0 1 -0.111,0.479a51.684,51.684 0 0 0 -0.866,16.501c0.036,0.893 0.261,1.768 0.66,2.566c-0.032,0.279 -0.072,0.551 -0.111,0.83a13.702,13.702 0 0 1 -14.73,-4.652c-1.32,-1.741 -2.213,-3.775 -3.342,-5.655c-1.057,-1.748 -2.345,-3.39 -3.005,-5.317c-0.905,-2.659 -0.549,-5.536 -0.727,-8.327a21.453,21.453 0 0 0 -4.828,-12.196c-3.389,-4.087 -8.587,-7.516 -8.818,-12.833c-0.231,-5.317 4.676,-9.656 4.425,-14.887c-0.224,-4.612 -4.379,-8.154 -5.23,-12.693c-1.157,-6.135 3.962,-11.903 3.731,-18.137c-0.31,-9.238 -11.532,-14.495 -13.785,-23.46c-1.32,-5.284 0.74,-10.747 1.605,-16.136a36.876,36.876 0 0 0 -2.146,-19.46c-1.057,-2.658 -2.424,-5.163 -2.986,-7.975c-0.561,-2.81 -0.145,-5.981 1.909,-7.922c1.982,-1.834 4.954,-2.126 7.517,-1.389c6.856,1.994 10.204,9.664 11.948,16.615c1.744,6.952 3.144,14.694 8.692,19.2c2.742,2.227 6.176,3.356 9.36,4.872c6.34,3.017 11.413,6.36 11.955,13.55c0.66,9.145 0.72,18.496 -0.97,27.541c-0.82,4.38 -1.982,8.78 -1.632,13.219c0.35,4.44 2.272,8.64 3.527,12.946c0.139,0.485 0.277,0.977 0.396,1.469c1.665,6.839 1.13,13.757 0.132,20.735z" fill="#30C59B"/>
   <path id="svg_40" d="m50.718,395a7.789,7.789 0 0 1 -0.502,-2.488c-0.43,-5.36 -0.216,-10.78 0.637,-16.047c0.023,-0.155 0.052,-0.31 0.08,-0.465c-0.171,6.346 0.374,12.744 -0.215,19z" fill="url(#p)"/>
   <path id="svg_41" d="m108.393,252.014c-1.871,2.47 -4.562,4.202 -6.627,6.513c-6.527,7.303 -5.568,18.41 -3.916,28.057c1.651,9.646 3.383,20.428 -2.172,28.495c-2.31,3.32 -5.674,5.842 -8.159,9.069a21.865,21.865 0 0 0 -4.49,12.548c-0.212,6.831 2.798,13.643 1.506,20.355c-1.911,9.913 -12.175,15.742 -17.457,24.36a26.644,26.644 0 0 0 -3.424,18.589a51.824,51.824 0 0 1 -10.064,-2.715a5.425,5.425 0 0 1 -2.344,-1.415a2.503,2.503 0 0 1 -0.247,-0.345a6.232,6.232 0 0 1 -0.699,-2.55c-0.599,-5.506 -0.3,-11.073 0.886,-16.484c0.033,-0.16 0.073,-0.319 0.113,-0.478c0.946,-4.11 2.345,-8.14 2.771,-12.336a39.84,39.84 0 0 0 -0.16,-8.166c1.006,-6.971 1.545,-13.882 -0.153,-20.668c-0.12,-0.49 -0.26,-0.982 -0.4,-1.467c0.127,-0.425 0.273,-0.85 0.44,-1.268c1.672,-4.289 4.909,-7.86 6.38,-12.223c1.939,-5.756 0.56,-12.023 0.613,-18.085c0.087,-10.47 4.823,-20.58 12.429,-27.725c2.71,-2.542 5.901,-4.52 7.16,-8.172c1.685,-4.907 0.666,-10.523 -0.54,-15.39c-1.418,-5.603 -2.764,-12.043 0.587,-16.757c1.665,-2.337 4.29,-3.857 7.02,-4.76c6.567,-2.165 14.407,-0.804 19.249,4.116c4.842,4.92 5.868,13.43 1.698,18.902z" fill="#30C59B"/>
   <path id="svg_42" d="m226.573,147.146s-27.817,4.3 -40.684,34.977c-12.867,30.677 -6.176,68.683 -5.951,72.027c0.225,3.344 39.428,17.85 50.635,17.85c11.208,0 13.542,-11.229 13.542,-11.229l-19.803,-8.433l60.17,-6.949l10.804,0l-5.951,10.032s11.743,1.23 19.592,1.511c7.848,0.281 13.178,-15.24 14.057,-22.959c0.88,-7.717 -34.667,-75.458 -39.977,-79.47c-5.31,-4.013 -19.717,-13.817 -56.434,-7.357z" fill="#2BD0D0"/>
   <path id="svg_43" d="m259.392,89.776s5.032,2.83 4.58,11.985c-0.453,9.155 -3.29,22.932 -6.153,26.5c-2.864,3.57 -12.88,4.968 -12.88,4.968s5.464,12.977 9.53,16.326c4.066,3.349 -4.086,15.687 -12.015,11.639c-7.928,-4.049 -17.12,-14.216 -17.12,-14.216s6.612,-12.245 4.376,-18.69c-2.235,-6.445 -10.772,-29.064 -4.376,-35.242c6.396,-6.18 20.186,-15.035 34.058,-3.27z" fill="url(#q)"/>
   <path id="svg_44" d="m215.334,191l-4.334,54.055l13.238,6.945l10.762,-1.878l-13.428,-16.504l-6.238,-42.618zm69.666,-3s17.909,42.077 9.97,57l-6.116,-1.16l-3.854,-55.84z" opacity="0.25" fill="#FFF"/>
   <path id="svg_45" d="m236.522,259.045s-6.766,5.775 -3.746,10.267c3.02,4.491 6.625,4.363 9.631,2.355c3.006,-2.009 8.911,-6.776 15.946,-4.588c7.035,2.188 8.744,3.58 8.744,3.58s3.705,-2.316 2.744,-4.639c-0.962,-2.323 -8.32,-9.85 -10.452,-10.825c-2.132,-0.975 -10.983,2.021 -10.983,2.021s-6.503,-1.758 -11.884,1.83l0,-0.001z" fill="url(#r)"/>
   <path id="svg_46" d="m296.191,246.598s-6.385,0.759 -7.998,4.957c-1.613,4.198 -2.193,4.71 -2.193,4.71s3.606,0.69 5.106,-1.264s3.059,-1.133 3.059,-1.133l-0.447,2.507s9.798,1.477 14.224,-0.11c4.425,-1.589 6.325,-3.453 6.325,-3.453l1.733,-4.24s-4.18,-3.03 -7.332,-3.5c-3.152,-0.47 -12.477,1.526 -12.477,1.526z" fill="url(#s)"/>
   <path id="svg_47" d="m329.893,291s21.934,16.687 19.984,39.259c-1.949,22.572 -4.813,56.087 -4.813,56.087s-8.846,3.722 -14.707,0c-5.862,-3.722 -9.411,-54.65 -12.315,-59.513c-2.904,-4.864 -20.375,-26.79 -39.042,-28.679l50.893,-7.154z" fill="#25233A"/>
   <path id="svg_48" d="m220,307.058s10.444,9.895 29.062,13.002c18.619,3.107 27.297,5.7 32.987,21.605c5.69,15.905 11.148,50.137 12.935,53.963c1.786,3.826 9.382,1.874 9.382,1.874s4.296,-4.895 4.296,-32.114c0,-37.946 2.655,-45.724 -6.913,-55.256c-9.568,-9.533 -18.272,-12.132 -18.272,-12.132l-63.477,9.058z" fill="#3F3D56"/>
   <path id="svg_49" d="m295,397l1.82,14.197l3.408,0s21.948,1.187 22.636,0.675c0.688,-0.513 -1.057,-11.243 -9.372,-10.94c-8.316,0.304 -8.861,-2.023 -8.861,-2.023l-9.631,-1.909zm37,-9.844l3.518,13.844l38.437,-5.212s1.353,-9.093 -10.823,-8.191c-3.214,0.234 -5.608,2.465 -9.471,2.485c-3.863,0.02 -7.563,-1.543 -9.511,-4.082l-12.15,1.156z" fill="#25233A"/>
   <path id="svg_50" d="m462.804,213.337l-142.243,7.654c-3.44,0.181 -6.376,-2.47 -6.561,-5.926l0,-101.592c0.003,-4.101 3.267,-7.448 7.348,-7.535l141.661,-2.937a6.835,6.835 0 0 1 4.886,1.917a6.898,6.898 0 0 1 2.105,4.827l0,95.971c-0.005,4.056 -3.164,7.402 -7.196,7.621z" fill="#2BD0D0"/>
   <path id="svg_51" d="m470.804,213.337l-142.25,7.655c-3.44,0.177 -6.372,-2.478 -6.554,-5.934l0,-101.585c-0.004,-4.102 3.26,-7.452 7.342,-7.535l141.68,-2.937c3.777,-0.07 6.898,2.943 6.978,6.738l0,95.977c-0.005,4.057 -3.164,7.403 -7.196,7.621z" fill="#2BD0D0"/>
   <path id="svg_52" d="m470.804,213.337l-142.25,7.655c-3.44,0.177 -6.372,-2.478 -6.554,-5.934l0,-101.585c-0.004,-4.102 3.26,-7.452 7.342,-7.535l141.68,-2.937c3.777,-0.07 6.898,2.943 6.978,6.738l0,95.977c-0.005,4.057 -3.164,7.403 -7.196,7.621z" fill="url(#t)"/>
   <path id="svg_53" d="m428.773,252.138l-36.295,3.862s-11.053,-2.23 -10.455,-3.862c0.599,-1.633 12.156,-3.205 12.156,-3.205l0,-65.804c-0.1,-0.146 -1.621,-2.084 -5.789,-3.319c-0.807,-0.239 -1.628,-0.43 -2.459,-0.57a7.252,7.252 0 0 1 -2.06,-0.624c-2.479,-1.28 0.26,-3.51 4.107,-3.61a9.625,9.625 0 0 1 1.802,0.106l27.913,0s10.568,2.973 11.08,17.811c0.511,14.839 0,59.215 0,59.215z" fill="#3A3054"/>
   <path id="svg_54" d="m399,252.277l-6.678,3.723s-10.888,-2.23 -10.299,-3.863c0.59,-1.632 11.995,-3.205 11.995,-3.205l0,-65.809c-0.138,-0.152 -1.807,-1.898 -5.703,-3.318a28.64,28.64 0 0 0 -4.452,-1.195c-2.442,-1.28 0.255,-3.51 4.046,-3.61c3.228,0.445 9.585,4.028 9.998,6.073c0.412,2.044 1.093,71.204 1.093,71.204z" fill="#51466B"/>
   <path id="svg_55" d="m264,390c-0.881,1.001 -1.29,1.37 -0.77,0.547c0.27,-0.159 0.527,-0.342 0.77,-0.547z" fill="url(#u)"/>
  </g>

 </g>
</svg>